<svg id="visual" viewBox="0 0 900 600" width="900" height="600" xmlns="http://www.w3.org/2000/svg" xmlns:xlink="http://www.w3.org/1999/xlink" version="1.1"><rect width="900" height="600" fill="#e7daee"></rect><g><g transform="translate(63 185)"><path d="M0 -112L97 -56L97 56L0 112L-97 56L-97 -56Z" fill="none" stroke="#de71a8" stroke-width="2"></path></g><g transform="translate(776 278)"><path d="M0 -44L38.1 -22L38.1 22L0 44L-38.1 22L-38.1 -22Z" fill="none" stroke="#de71a8" stroke-width="2"></path></g><g transform="translate(384 90)"><path d="M0 -101L87.5 -50.5L87.5 50.5L0 101L-87.5 50.5L-87.5 -50.5Z" fill="none" stroke="#de71a8" stroke-width="2"></path></g><g transform="translate(614 25)"><path d="M0 -91L78.8 -45.5L78.8 45.5L0 91L-78.8 45.5L-78.8 -45.5Z" stroke="#de71a8" fill="none" stroke-width="2"></path></g></g></svg>