<svg id="visual" viewBox="0 0 1920 1080" width="1920" height="1080" xmlns="http://www.w3.org/2000/svg" xmlns:xlink="http://www.w3.org/1999/xlink" version="1.1"><rect x="0" y="0" width="1920" height="1080" fill="#8D7B68"></rect><g fill="none" stroke="#C8B6A6" stroke-width="4"><path d="M0 -213.3L47.9 -65.9L202.9 -65.9L77.5 25.2L125.4 172.6L0 81.5L-125.4 172.6L-77.5 25.2L-202.9 -65.9L-47.9 -65.9Z" transform="translate(1509 761)"></path><path d="M0 -40.6L9.1 -12.5L38.6 -12.5L14.7 4.8L23.9 32.8L0 15.5L-23.9 32.8L-14.7 4.8L-38.6 -12.5L-9.1 -12.5Z" transform="translate(1301 317)"></path><path d="M0 -66.1L14.8 -20.4L62.8 -20.4L24 7.8L38.8 53.5L0 25.2L-38.8 53.5L-24 7.8L-62.8 -20.4L-14.8 -20.4Z" transform="translate(148 17)"></path><path d="M0 -50L11.2 -15.5L47.6 -15.5L18.2 5.9L29.4 40.5L0 19.1L-29.4 40.5L-18.2 5.9L-47.6 -15.5L-11.2 -15.5Z" transform="translate(83 852)"></path><path d="M0 -149.1L33.5 -46.1L141.8 -46.1L54.2 17.6L87.7 120.6L0 57L-87.7 120.6L-54.2 17.6L-141.8 -46.1L-33.5 -46.1Z" transform="translate(540 373)"></path></g></svg>